# xmcd
#
# Track frame offsets: 
#        150
#        28622
#        41765
#        55192
#        82360
#        107927
#        127997
#        160015
#        180607
#        205327
#        227060
#        253775
#        274005
#
# Disc length: 3868 seconds
#
# Revision: 1
# Processed by: cddbd v1.5.2PL0 Copyright (c) Steve Scherf et al.
# Submitted via: ExactAudioCopy v0.99pb5
#
DISCID=b60f1a0d
DTITLE=Sting - Happy Birthday Sting Disc 2
DYEAR=1991
DGENRE=Rock
TTITLE0=The Soul Cages
TTITLE1=Purple Haze
TTITLE2=Walking On The Moon
TTITLE3=Every Breath You Take
TTITLE4=Message In A Bottle
TTITLE5=Fragile
TTITLE6=All This Time, Concert 1991
TTITLE7=Mad About You, Concert 1991
TTITLE8=Every Breath You Take, Concert 1991
TTITLE9=Why Should Cry For You, Concert 1991
TTITLE10=Message In A Bottle, Concert 1991
TTITLE11=Tea In The Sahara, Concert 1991
TTITLE12=Walking On The Moon, Concert 1991
EXTD=
EXTT0=
EXTT1=
EXTT2=
EXTT3=
EXTT4=
EXTT5=
EXTT6=
EXTT7=
EXTT8=
EXTT9=
EXTT10=
EXTT11=
EXTT12=
PLAYORDER=
